<svg xmlns="http://www.w3.org/2000/svg" xmlns:xlink="http://www.w3.org/1999/xlink" version="1.1" id="Layer_1" x="0px" y="0px" width="93.625px" height="100px" viewBox="4.68125 -10.0 93.625 135.0" enable-background="new 0 0 93.625 100" xml:space="preserve">
<path fill="#010101" d="M31.057,27.354c0.231-4.866-3.526-8.989-8.391-9.224c-4.875-0.227-9.001,3.524-9.234,8.391  c-0.229,4.875,3.524,8.997,8.395,9.232C26.697,35.978,30.829,32.234,31.057,27.354z"/>
<path fill="#010101" d="M92.423,79.625L76.425,59.991c-0.935-1.147-2.309-1.854-3.782-1.95l-19.348-1.271l-3.389-8.117l-7.998,3.685  l-0.77-1.701l16.593-7.702c1.614-0.839,2.431-2.63,2.073-4.34c-0.066-0.323-0.177-0.637-0.328-0.952  c-0.974-1.978-3.371-2.792-5.353-1.822l-7.99,3.926l-2.477-5.876l18.879-14.435c0.789-0.732,1.304-1.77,1.354-2.934  c0.086-2.333-1.634-4.144-3.714-4.286c-1.249-0.083-2.289,0.278-3.544,1.185l-26.776,20.43c-0.841,0.787-1.715,2.18-2.191,3.981  c-0.41,1.554-0.128,3.738,0.393,5.878c0.029,0.393,0.151,0.758,0.289,1.119c0.911,3.252,2.201,6.124,2.201,6.124l7.917,17.525  c0.997,1.948,2.683,3.468,4.729,4.32c0.173,0.094,0.336,0.194,0.524,0.267l14.691,5.628l-4.655,14.351  c-0.907,2.796,0.624,5.803,3.427,6.71c0.548,0.179,1.1,0.265,1.644,0.265c2.248,0,4.34-1.436,5.072-3.689l6.213-19.163  c0.873-2.694-0.517-5.603-3.164-6.619l-6.853-2.624l9.535,0.621L84.163,86.36c1.052,1.292,2.586,1.962,4.133,1.962  c1.187,0,2.376-0.391,3.364-1.196C93.943,85.265,94.287,81.907,92.423,79.625z"/>
<path fill="#010101" d="M79.333,0H40.186h-7.767H15.482v3.333h13.049c-0.041,0.233-0.138,0.449-0.138,0.696v7.769  c0,2.226,1.805,4.027,4.027,4.027h7.765c2.226,0,4.029-1.801,4.029-4.027V4.027c0-0.247-0.099-0.462-0.14-0.695h35.259V0z"/>
<polygon fill="#010101" points="12.857,17.774 6.127,9.861 8.665,7.701 15.396,15.614 "/>
<polygon fill="#010101" points="9.578,23.095 0,20.597 0.839,17.372 10.417,19.868 "/>
<polygon fill="#010101" points="21.763,14.506 18.433,14.506 18.433,7.151 21.763,7.151 "/>
<g id="Layer_3">
</g>
<text x="0.0" y="117.5" font-size="5.0" font-weight="bold" font-family="Helvetica Neue, Helvetica, Arial-Unicode, Arial, Sans-serif" fill="#000000">Created by Luis Prado</text><text x="0.0" y="122.5" font-size="5.0" font-weight="bold" font-family="Helvetica Neue, Helvetica, Arial-Unicode, Arial, Sans-serif" fill="#000000">from the Noun Project</text></svg>